PathFileType	4	(X/Y/Z)	Patient4_TMGait_0pt6_02_left_25.trc.trc
DataRate	CameraRate	NumFrames	NumMarkers	Units	OrigDataRate	OrigDataStartFrame	OrigNumFrames
82.352941176471	82.352941176471	5	33	mm	82.352941176471	18	       141
Frame#	Time	Sacral			L.Shoulder			Chest			R.Shoulder			Neck			R.ASIS			L.ASIS			R.Thigh.Superior			R.Thigh.Lateral			R.Thigh.Inferior			R.Patella			L.Thigh.Superior			L.Thigh.Lateral			L.Thigh.Inferior			L.Patella			L.Shank.Superior			L.Shank.Lateral			L.Shank.Inferior			R.Shank.Superior			R.Shank.Lateral			R.Shank.Inferior			R.Heel			R.Midfoot.Superior			R.Midfoot.Lateral			R.Toe			L.Heel			L.Midfoot.Lateral			L.Midfoot.Superior			L.Toe			L.Elbow			L.Wrist			R.Elbow			R.Wrist			
		X1	Y1	Z1	X2	Y2	Z2	X3	Y3	Z3	X4	Y4	Z4	X5	Y5	Z5	X6	Y6	Z6	X7	Y7	Z7	X8	Y8	Z8	X9	Y9	Z9	X10	Y10	Z10	X11	Y11	Z11	X12	Y12	Z12	X13	Y13	Z13	X14	Y14	Z14	X15	Y15	Z15	X16	Y16	Z16	X17	Y17	Z17	X18	Y18	Z18	X19	Y19	Z19	X20	Y20	Z20	X21	Y21	Z21	X22	Y22	Z22	X23	Y23	Z23	X24	Y24	Z24	X25	Y25	Z25	X26	Y26	Z26	X27	Y27	Z27	X28	Y28	Z28	X29	Y29	Z29	X30	Y30	Z30	X31	Y31	Z31	X32	Y32	Z32	X33	Y33	Z33	

18	30.796428571429	859.685343922808	1015.744932744500	481.721873273194	1039.900416925504	1434.396645152696	284.535753669308	1161.742329865822	1349.043224643037	422.615159664644	1116.204018759394	1429.716980190472	606.461001903401	1071.680724787479	1489.606249579164	434.279537440066	1091.993065643879	941.352570201096	575.097243939378	1051.339399076283	954.155380634863	301.542174359018	1092.165413579129	731.084058208826	552.099486774977	989.255482182609	636.260900672631	612.450255151896	1052.022129824372	571.912622340104	532.828385112928	1035.377517320270	488.191199839953	537.134839386403	1127.262975257557	779.012149010711	331.890635253172	1081.450115451852	646.836047404291	257.214848309595	1189.847290039340	592.898279483703	315.644911624331	1220.158872272256	529.463332212857	312.326001826948	1206.299615326523	457.658389872712	305.111155919878	1144.959679398215	323.113190920040	260.409762297314	1240.451723840422	230.124865809076	312.284795707065	1001.267612392216	403.860172165028	540.627691608219	920.744288834897	304.274054219847	597.218239857869	958.242211256543	208.359133707679	532.070039248294	814.220540328799	47.270715476294	495.254098102960	988.146611605856	97.596025213421	529.233720084396	898.630130013877	38.290926873485	567.513000428805	1106.564409288156	39.389697869262	553.898729960144	1169.610489487219	47.639110918797	359.640641187261	1240.315162165810	51.916651800605	276.801545321134	1307.701851481544	133.928815876961	290.932079193335	1441.745011379054	109.899554152688	261.553790995116	878.535795104527	1113.631963869306	198.444878140158	852.713955606893	853.326747851414	208.381764601196	1246.184691603191	1114.960896431769	705.373778161461	1453.468195854572	1189.608082342609	585.535225007435	
19	30.808571428571	860.734538543533	1014.631268753800	479.176408395097	1039.688520880359	1433.588933764413	282.418974088830	1161.376423907529	1348.850034318549	420.972084167626	1114.916315533051	1429.545981934245	604.485998234017	1070.777001990131	1489.032326789148	432.213864998739	1092.414471506630	940.692973346426	573.884310666026	1053.374115892142	953.203424624047	299.921666690659	1091.362893445932	730.044434347196	550.938484902569	987.604058445292	635.807967525400	611.177851059523	1050.027436127791	570.916768192351	531.770998630024	1032.587943411248	487.128789082413	535.971423707524	1129.111300010944	777.537083591452	331.007901439395	1082.024028186755	644.961480173952	257.516854815764	1189.978328158378	590.751008276401	315.794104543267	1219.378371971540	527.046892250393	313.252548297693	1205.382308507890	455.039016571480	306.027784585943	1143.480447265052	320.724870357205	261.960611968797	1238.377436979953	227.556624674283	314.239725595282	997.765332469142	402.936686519015	539.671349578858	916.133436893084	304.279079118794	596.405053819406	952.449256050949	207.866975649624	531.512347304517	806.983705516345	47.425086324666	495.160390975764	981.002871923547	97.750113311710	529.376730780308	891.309480089928	38.396218805268	567.453123276306	1099.265301692695	39.321671681483	554.029497060534	1166.369196620802	46.557543685168	362.431128057193	1236.784947456817	49.796557538842	279.340626601021	1305.332523033561	130.506659550115	293.351718746939	1438.785674408186	104.447903641114	263.574585465089	878.753590014908	1112.776671462467	196.355505171283	853.257162170235	852.405663128323	206.891565241747	1247.501937002887	1116.222726672672	702.827163101776	1451.880051068717	1196.119087455851	582.049603722474	
20	30.820714285714	861.980866102008	1013.329600696981	476.428584983435	1039.444085590482	1432.600470780935	280.065757973145	1160.970580741626	1348.641377561499	419.191788642281	1113.438441704448	1429.389750422733	602.325740147813	1069.727811134856	1488.367841988729	429.888013404582	1092.988063041350	939.874644609976	572.606902132163	1055.744711312691	952.168866231748	298.259786477132	1090.772178232666	728.819073893106	549.647587056984	986.191619465064	635.160893061972	609.749433700311	1048.302269990796	569.751623628306	530.547685966356	1030.061835027099	485.827858914094	534.599180954682	1131.406706057790	775.982248605751	330.159472452168	1083.005176307849	643.094943379927	257.845432377071	1190.378475563211	588.531764003636	316.149169206850	1218.581917232087	524.243368342659	314.419429956217	1204.196473525396	451.945545055314	307.092709023973	1141.116013966668	318.228309388346	263.407336285613	1234.745588403203	224.371720849325	316.342422768798	994.486142953864	401.800370687124	538.545234289402	911.681605708989	304.126463299481	595.480323569175	946.692258869800	207.200639347700	530.827267090834	799.709379057366	47.399715084056	495.055499400575	973.789845445613	97.844568912688	529.433918799997	883.969321073545	38.423556459675	567.394022039649	1091.971700056286	39.300682909751	554.159426379919	1160.410943805494	45.330890926375	365.001070929047	1230.669582448591	47.372915232354	281.742890906129	1300.813268318065	126.259718566202	296.039570174398	1433.580806142337	97.448776864312	265.948779409899	879.449718621636	1111.441595786449	194.033434877058	854.634859508393	850.976460582491	204.999432435466	1248.092752141049	1117.337694988895	700.639742301163	1449.797975237282	1201.507729916708	578.880312445080	
21	30.832857142857	863.393799578131	1011.862598961213	473.498023638768	1039.185500929256	1431.425806116344	277.476266522624	1160.541204628899	1348.410286499471	417.276059520891	1111.794017805842	1429.253138775755	599.983371958999	1068.556074324920	1487.617205165934	427.296080164673	1093.709720960644	938.899673557945	571.268936286874	1058.419937190961	951.059036171365	296.587553176444	1090.430224546121	727.406213368893	548.251712346912	985.049577252123	634.300236646090	608.157281477828	1046.894337409100	568.405656925141	529.148856845083	1027.867632328930	484.246164473016	533.015012708372	1134.059067439722	774.310313449053	329.381441990494	1084.315797140078	641.259392090828	258.135876258225	1190.969916332052	586.245445370195	316.692190259432	1217.710487130894	521.126901613880	315.811144910649	1202.780634817100	448.511694390699	308.263269949381	1138.123167129146	315.666241920279	264.642174050564	1229.939523075998	220.752011627898	318.502564391734	991.455947732637	400.435501766475	537.237339907821	907.409472630436	303.817338592673	594.442622478172	940.981459149758	206.360938479555	530.012629261375	792.387094405561	47.210990804084	494.954134354471	966.513850922408	97.860397593887	529.393654807676	876.612441466610	38.369688249983	567.345608680699	1084.689961849825	39.316789251221	554.281536010210	1152.377246892070	43.995823841830	367.206949407822	1222.635505697317	44.806314576512	283.885235678990	1294.652174110302	121.486034168184	298.896145035632	1426.700251513439	89.446416837437	268.627153366463	880.649465668146	1109.615037152078	191.473608908653	856.846839487452	849.037074020736	202.706812976872	1247.921035598125	1118.258018033743	698.845093570341	1447.232092470826	1205.762336244078	576.035468060205	
22	30.845000000000	864.924510469117	1010.274824380881	470.414746307304	1038.934286502547	1430.076360874205	274.657028521688	1160.106762829754	1348.160465616374	415.229811040809	1110.018719909623	1429.153609957644	597.465821364350	1067.297350965129	1486.800920307849	424.437115131078	1094.558783187042	937.788761591994	569.872269143694	1061.340366429379	949.901897728155	294.936537518126	1090.379189993730	725.830279042178	546.764709397928	984.233919392801	633.220902210339	606.393576469253	1045.881642556479	566.886758186718	527.561895680230	1026.115097501655	482.352081783136	531.226038200906	1136.963304588018	772.523340940713	328.698282840210	1085.875502294835	639.504500658265	258.317844492154	1191.684975337744	583.937933307674	317.372803814144	1216.745993452481	517.831937933777	317.361150444091	1201.204748115095	444.920022343291	309.467764420224	1134.782796419384	313.127031121429	265.575206239387	1224.379679866419	216.933148979055	320.617523219739	988.729374837757	398.841279990952	535.741998545245	903.361123741970	303.379684206405	593.294247145459	935.349181276994	205.373313631555	529.074910706662	785.013696840805	46.926345060185	494.872904096593	959.199661275188	97.788090684065	529.255822237128	869.245700563918	38.255197228585	567.317799594774	1077.424509190048	39.349156250595	554.385938484173	1142.975768769163	42.633558521341	368.969363839651	1213.377062356819	42.288428331118	285.679086619856	1287.380210032386	116.541594521639	301.786935446945	1418.723523750571	81.063451765197	271.473068812898	882.388991175444	1107.301673635226	188.675805880500	859.896157355583	846.602407698078	200.023543714525	1246.947970519766	1118.944144734753	697.462286397433	1444.191210103009	1208.861637618473	573.524665456668	
